<svg width="93" height="93" viewBox="0 0 93 93" fill="none" xmlns="http://www.w3.org/2000/svg">
<path d="M0 87.4403H5.14355H10.2871V72.0096V56.579H5.14355H0V72.0096V87.4403Z" fill="#6B7280"/>
<path d="M48.658 92.5838L33.5874 89.292L18.5168 85.7429C17.6445 85.5729 16.8608 85.099 16.3051 84.4056C15.7302 83.7324 15.4195 82.8733 15.4306 81.9881V61.4139C15.4452 60.5333 15.7529 59.6827 16.3051 58.9965C16.8795 58.3247 17.655 57.8558 18.5168 57.6591L43.1029 54.6245L67.7405 51.5383L68.512 54.4187L69.2836 57.2477C69.2972 58.196 69.0287 59.127 68.512 59.9223C68.0394 60.754 67.3206 61.4189 66.4546 61.8254L56.1675 64.3972L45.8804 66.969L54.213 70.3637L62.597 73.707L74.2728 70.4151L85.64 66.8661C86.6502 66.6107 87.72 66.7582 88.6233 67.2776C89.0782 67.5232 89.4775 67.8602 89.7961 68.2673C90.1147 68.6744 90.3459 69.143 90.475 69.6436L91.4523 73.6041L92.481 77.5132C92.7142 78.4908 92.5671 79.5205 92.0695 80.3936C91.5404 81.2746 90.6936 81.9189 89.7034 82.1939L71.0324 87.3374L52.3613 92.4809C51.7466 92.5595 51.1244 92.5595 50.5096 92.4809C49.9023 92.6169 49.2766 92.6516 48.658 92.5838V92.5838Z" fill="#6B7280"/>
<path d="M30.8613 0L20.5742 10.2871L10.2871 20.5742L20.5742 30.8613L30.8613 41.1484L34.4617 37.5479L38.0622 33.9474L31.3756 27.2608L24.689 20.5742L31.3756 13.8876L38.0622 7.20096L34.4617 3.60048L30.8613 0Z" fill="#6B7280"/>
<path d="M61.7225 0L58.1221 3.60048L54.5216 7.20096L61.2082 13.8876L67.8948 20.5742L61.2082 27.2608L54.5216 33.9474L58.1221 37.5479L61.7225 41.1484L72.0096 30.8613L82.2967 20.5742L72.0096 10.2871L61.7225 0Z" fill="#6B7280"/>
</svg>
