<svg width="108" height="108" viewBox="0 0 108 108" fill="none" xmlns="http://www.w3.org/2000/svg">
<path d="M54 9C29.1465 9 9 29.1465 9 54C9 78.8535 29.1465 99 54 99C78.8535 99 99 78.8535 99 54C99 29.1465 78.8535 9 54 9ZM58.5 81H49.5V72H58.5V81ZM58.5 62.37V67.5H49.5V58.5C49.5 56.016 51.516 54 54 54C58.9635 54 63 49.9635 63 45C63 40.0365 58.9635 36 54 36C49.0365 36 45 40.0365 45 45H36C36 35.055 44.055 27 54 27C63.945 27 72 35.055 72 45C72 53.379 66.249 60.3585 58.5 62.37Z" fill="#6B7280"/>
</svg>
