<svg width="93" height="89" viewBox="0 0 93 89" fill="none" xmlns="http://www.w3.org/2000/svg">
<path d="M83.9089 17.7605H69.4418V8.88023C69.4418 3.9776 65.5538 0 60.7616 0H31.8275C27.0353 0 23.1473 3.9776 23.1473 8.88023V17.7605H8.68023C3.88802 17.7605 0 21.7381 0 26.6407V79.9221C0 84.8247 3.88802 88.8023 8.68023 88.8023H83.9089C88.7011 88.8023 92.5891 84.8247 92.5891 79.9221V26.6407C92.5891 21.7381 88.7011 17.7605 83.9089 17.7605ZM34.7209 11.8403H57.8682V17.7605H34.7209V11.8403ZM63.655 57.7215C63.655 58.5355 63.004 59.2015 62.2083 59.2015H52.0814V69.5618C52.0814 70.3758 51.4304 71.0418 50.6347 71.0418H41.9544C41.1588 71.0418 40.5077 70.3758 40.5077 69.5618V59.2015H30.3808C29.5851 59.2015 28.9341 58.5355 28.9341 57.7215V48.8413C28.9341 48.0272 29.5851 47.3612 30.3808 47.3612H40.5077V37.001C40.5077 36.1869 41.1588 35.5209 41.9544 35.5209H50.6347C51.4304 35.5209 52.0814 36.1869 52.0814 37.001V47.3612H62.2083C63.004 47.3612 63.655 48.0272 63.655 48.8413V57.7215Z" fill="#6B7280"/>
</svg>
