<svg width="125" height="97" viewBox="0 0 125 97" fill="none" xmlns="http://www.w3.org/2000/svg">
<path d="M24.25 0C10.8475 0 0 10.8475 0 24.25V72.75C0 86.1525 10.8475 97 24.25 97C37.6525 97 48.5 86.1525 48.5 72.75V24.25C48.5 10.8475 37.6525 0 24.25 0ZM34.6429 48.5H13.8571V24.25C13.8571 18.5123 18.5123 13.8571 24.25 13.8571C29.9877 13.8571 34.6429 18.5123 34.6429 24.25V48.5ZM64.8904 42.0694C64.1326 41.3116 62.8551 41.3982 62.2272 42.2426C52.419 55.775 53.4799 74.742 65.6699 86.9319C77.8598 99.1219 96.8268 100.183 110.359 90.3745C111.225 89.7466 111.29 88.4692 110.532 87.7114L64.8904 42.0694ZM114.646 37.9556C102.456 25.7656 83.4893 24.7047 69.9569 34.5129C69.0908 35.1408 69.0259 36.4183 69.7837 37.1761L115.426 82.8181C116.183 83.5759 117.461 83.4893 118.089 82.6449C127.897 69.0908 126.858 50.1455 114.646 37.9556V37.9556Z" fill="#6B7280"/>
</svg>
